<!--
	This file is the source for the generated joplin-cloud.png and joplin-cloud@2x.png.
	It is not used directly by the mobile app.

	The PNG icons were generated with ImageMagick:
	$ convert -background transparent -resize x200 joplin-cloud.svg joplin-cloud@2x.png
	and 
	$ convert -background transparent joplin-cloud.svg joplin-cloud.png
-->
<svg
	viewBox="17 0 178 178"
	width="178"
	height="178"
	version="1.1"
	baseProfile="full"
	xmlns="http://www.w3.org/2000/svg"
>
	<path d="M192.27,108.8584c0,10.06985 -4.13945,19.28745 -10.8122,25.88145c-6.65,6.61605 -15.9467,10.72015 -26.10265,10.72015l-22.12175,0l0-19.06345l22.12175,0c4.9084,0 9.27395-1.9509 12.50865-5.13555c3.21195-3.2074 5.17965-7.51345 5.17965-12.4026c0-4.86675 -1.9677-9.1952 -5.17965-12.40225c-3.2347-3.18465 -7.5775-5.1359 -12.50865-5.1359l-18.7061,0l1.04055-10.47375c.11305-1.0766 .1582-2.13045 .1582-3.22945c0-8.90365 -3.619-16.86545 -9.47765-22.69645c-5.88105-5.83135 -13.91075-9.39715 -22.8907-9.39715c-8.97995,0 -17.00965,3.5882 -22.8907,9.39715c-5.88105,5.831 -9.47765,13.7928 -9.47765,22.69645c0,1.0766 .04515,2.15285 .15855,3.22945l1.0402,10.47375l-16.6026,0c-4.9084,0 -9.2736,1.95125 -12.5083,5.1359c-3.21195,3.20705 -5.18,7.5131 -5.18,12.40225c0,4.86675 1.96805,9.1952 5.18,12.4026c3.2347,3.18465 7.5775,5.13555 12.5083,5.13555l26.80405,0c4.88565-.7847 9.40975-3.0723 13.006-6.61605c4.50135-4.48525 6.9895-10.4286 6.9895-16.7307l0-20.29685l-19.47505,0l0-7.3563c0-6.2573 5.1345-11.3708 11.46775-11.3708l26.89435,0l0,39.02395c0,11.16885 -4.54615,22.09095 -12.5083,29.96315c-7.0119,6.9748 -16.3989,11.30325 -26.2612,12.2227l-2.48815,.22435l-24.45135,0c-10.1563,0 -19.45265-4.1041 -26.10265-10.72015c-6.67275-6.594 -10.8122-15.8116 -10.8122-25.88145c0-10.06985 4.13945-19.28745 10.8122-25.8811c5.8583-5.83135 13.77495-9.7111 22.5288-10.54095c1.2215-12.0435 6.69515-22.8984 14.861-30.9946c9.3191-9.24035 22.27995-15.00415 36.48505-14.98175c14.2275,0 27.18835,5.7414 36.4847,14.98175c8.1431,8.0514 13.59435,18.8839 14.8386,30.8826c9.59035,.38115 18.29905,4.35085 24.6323,10.65295c6.7179,6.59365 10.85735,15.81125 10.85735,25.8811" fill="#ffffff"></path>
</svg>